<svg width="340" height="408" viewBox="0 0 340 408" fill="none" xmlns="http://www.w3.org/2000/svg">
<path d="M-101.84 935.339L-137.568 990.209C-154.436 1016.11 -180.455 1030.21 -207.393 1032.95L-218.516 1111.54C-223.307 1145.39 -267.518 1155.19 -286.164 1126.53L-322.766 1070.28C-325.855 1065.53 -327.5 1059.98 -327.5 1054.32L-327.5 987.003C-327.5 972.998 -308.633 968.521 -302.342 981.034C-283.24 1019.02 -244.447 1036.73 -207.393 1032.95L-63.8873 19.0219C-60.7811 -2.92516 -30.2326 -5.77928 -23.1147 15.2125C-22.3766 17.3895 -22 19.6727 -22 21.9714L-22 87.6742C-22 97.4871 -18.1018 106.898 -11.163 113.837L19.9008 144.901C43.7144 168.714 74.3195 184.567 107.509 190.28L202.691 206.664C263.596 217.147 311.163 265.082 321.178 326.066L338.611 432.23C339.64 438.497 339.039 444.924 336.864 450.892L222.65 764.364C219.348 773.428 212.637 780.843 203.946 785.03L-94.3508 928.752C-97.402 930.223 -99.9923 932.5 -101.84 935.339Z" fill="#228D73"/>
</svg>
