<svg width="322" height="839" viewBox="0 0 322 839" fill="none" xmlns="http://www.w3.org/2000/svg">
<path d="M-51.5 801.667L-51.5 14.9328C-51.5 -1.75602 -28.1403 -5.60874 -22.7812 10.1962C-22.2639 11.7218 -22 13.3218 -22 14.9327L-22 81.6742C-22 91.4871 -18.1018 100.898 -11.163 107.837L19.9008 138.901C43.7144 162.714 74.3194 178.567 107.509 184.28L239.674 207.03C278.443 213.703 308.722 244.215 315.096 283.035C331.352 382.025 314.068 483.608 265.989 571.652L244.464 611.069C217.151 661.087 179.252 704.543 133.412 738.404L7.48421 831.428C-16.9403 849.471 -51.5 832.033 -51.5 801.667Z" fill="#228D73"/>
</svg>
