<svg width="31" height="30" viewBox="0 0 31 30" fill="none" xmlns="http://www.w3.org/2000/svg">
<path d="M19.2479 20.875L21.0091 19.125L16.3544 14.5V8.75H13.8383V15.5L19.2479 20.875ZM15.0964 27.5C13.3561 27.5 11.7207 27.1719 10.19 26.5156C8.65944 25.8594 7.32803 24.9688 6.1958 23.8438C5.06357 22.7188 4.16722 21.3958 3.50675 19.875C2.84629 18.3542 2.51605 16.7292 2.51605 15C2.51605 13.2708 2.84629 11.6458 3.50675 10.125C4.16722 8.60417 5.06357 7.28125 6.1958 6.15625C7.32803 5.03125 8.65944 4.14062 10.19 3.48438C11.7207 2.82812 13.3561 2.5 15.0964 2.5C16.8367 2.5 18.4721 2.82812 20.0027 3.48438C21.5333 4.14062 22.8647 5.03125 23.997 6.15625C25.1292 7.28125 26.0255 8.60417 26.686 10.125C27.3465 11.6458 27.6767 13.2708 27.6767 15C27.6767 16.7292 27.3465 18.3542 26.686 19.875C26.0255 21.3958 25.1292 22.7188 23.997 23.8438C22.8647 24.9688 21.5333 25.8594 20.0027 26.5156C18.4721 27.1719 16.8367 27.5 15.0964 27.5ZM15.0964 25C17.885 25 20.2595 24.026 22.22 22.0781C24.1804 20.1302 25.1606 17.7708 25.1606 15C25.1606 12.2292 24.1804 9.86979 22.22 7.92188C20.2595 5.97396 17.885 5 15.0964 5C12.3077 5 9.9332 5.97396 7.97277 7.92188C6.01233 9.86979 5.03212 12.2292 5.03212 15C5.03212 17.7708 6.01233 20.1302 7.97277 22.0781C9.9332 24.026 12.3077 25 15.0964 25Z" fill="#4F4F4F"/>
</svg>
