<svg width="110" height="37" viewBox="0 0 110 37" fill="none" xmlns="http://www.w3.org/2000/svg">
<path d="M14.1172 8.39062C14.1172 8.9375 14.2031 9.39062 14.375 9.75C14.5469 10.0938 14.7578 10.3906 15.0078 10.6406C15.2734 10.875 15.5547 11.0703 15.8516 11.2266C16.1484 11.3828 16.4219 11.5469 16.6719 11.7188C16.9375 11.8906 17.1562 12.0859 17.3281 12.3047C17.5 12.5234 17.5859 12.8047 17.5859 13.1484C17.5859 13.7266 17.3828 14.1719 16.9766 14.4844C16.5703 14.7812 16.1016 14.9297 15.5703 14.9297C15.0703 14.9297 14.6016 14.7734 14.1641 14.4609C13.7422 14.1484 13.3672 13.7266 13.0391 13.1953C12.7266 12.6484 12.4766 12.0156 12.2891 11.2969C12.1016 10.5625 12.0078 9.78906 12.0078 8.97656C12.0078 7.97656 12.1641 7.02344 12.4766 6.11719C12.7891 5.19531 13.25 4.39062 13.8594 3.70312C14.4688 3 15.2188 2.44531 16.1094 2.03906C17.0156 1.63281 18.0469 1.42969 19.2031 1.42969C19.9844 1.42969 20.8359 1.5625 21.7578 1.82812C22.6797 2.07813 23.5938 2.48438 24.5 3.04688C25.4219 3.60938 26.3047 4.33594 27.1484 5.22656C28.0078 6.11719 28.7656 7.20312 29.4219 8.48438C30.0938 9.76562 30.625 11.25 31.0156 12.9375C31.4062 14.625 31.6016 16.5391 31.6016 18.6797C31.6016 21.4453 31.1875 23.9219 30.3594 26.1094C29.5469 28.2969 28.4375 30.1562 27.0312 31.6875C25.6406 33.2031 24.0234 34.3672 22.1797 35.1797C20.3359 35.9766 18.3828 36.375 16.3203 36.375C14.2734 36.375 12.3203 36.0234 10.4609 35.3203C8.60156 34.6172 6.96094 33.5469 5.53906 32.1094C4.13281 30.6562 3.00781 28.8203 2.16406 26.6016C1.33594 24.3672 0.921875 21.7266 0.921875 18.6797C0.921875 16.3203 1.23438 14.1719 1.85938 12.2344C2.5 10.2969 3.35156 8.57812 4.41406 7.07812C5.49219 5.57812 6.74219 4.32031 8.16406 3.30469C9.58594 2.27344 11.0938 1.49219 12.6875 0.960938L13.4844 1.96875C13.0312 2.42187 12.6094 2.89062 12.2188 3.375C11.8281 3.85938 11.4688 4.41406 11.1406 5.03906C10.8125 5.64844 10.5156 6.35938 10.25 7.17188C10 7.96875 9.78906 8.91406 9.61719 10.0078C9.44531 11.0859 9.3125 12.3359 9.21875 13.7578C9.125 15.1797 9.07812 16.8203 9.07812 18.6797C9.07812 21.0859 9.20312 23.1406 9.45312 24.8438C9.71875 26.5469 10.0547 27.9766 10.4609 29.1328C10.8828 30.2734 11.3516 31.1875 11.8672 31.875C12.3984 32.5469 12.9297 33.0547 13.4609 33.3984C13.9922 33.7422 14.5078 33.9688 15.0078 34.0781C15.5078 34.1719 15.9453 34.2188 16.3203 34.2188C16.6953 34.2188 17.125 34.1719 17.6094 34.0781C18.1094 33.9688 18.6172 33.7422 19.1328 33.3984C19.6641 33.0547 20.1875 32.5469 20.7031 31.875C21.2188 31.1875 21.6719 30.2734 22.0625 29.1328C22.4688 27.9766 22.7969 26.5469 23.0469 24.8438C23.2969 23.1406 23.4219 21.0859 23.4219 18.6797C23.4219 16.5703 23.3281 14.7344 23.1406 13.1719C22.9531 11.6094 22.7031 10.2734 22.3906 9.16406C22.0938 8.05469 21.7422 7.14844 21.3359 6.44531C20.9453 5.72656 20.5312 5.16406 20.0938 4.75781C19.6719 4.33594 19.2422 4.04688 18.8047 3.89062C18.3828 3.73437 17.9922 3.65625 17.6328 3.65625C17.0703 3.65625 16.5703 3.78906 16.1328 4.05469C15.6953 4.32031 15.3281 4.67969 15.0312 5.13281C14.7344 5.57031 14.5078 6.07812 14.3516 6.65625C14.1953 7.21875 14.1172 7.79688 14.1172 8.39062ZM44 13.5469C43.6406 13.5469 43.2969 13.5938 42.9688 13.6875C42.6562 13.7812 42.375 13.9375 42.125 14.1562C41.875 14.3594 41.6797 14.625 41.5391 14.9531C41.3984 15.2656 41.3281 15.6406 41.3281 16.0781C41.3281 16.6875 41.5469 17.2969 41.9844 17.9062C42.4375 18.5 42.9922 19.125 43.6484 19.7812C44.3203 20.4219 45.0391 21.0938 45.8047 21.7969C46.5859 22.4844 47.3047 23.2188 47.9609 24C48.6328 24.7656 49.1875 25.5859 49.625 26.4609C50.0781 27.3359 50.3047 28.2734 50.3047 29.2734C50.3047 30.3984 50.1094 31.3984 49.7188 32.2734C49.3438 33.1484 48.7969 33.8906 48.0781 34.5C47.375 35.1094 46.5156 35.5781 45.5 35.9062C44.5 36.2188 43.3828 36.375 42.1484 36.375C41.0703 36.375 40.0938 36.2266 39.2188 35.9297C38.3438 35.6172 37.5625 35.2422 36.875 34.8047C36.2031 34.3516 35.625 33.875 35.1406 33.375C34.6562 32.875 34.2812 32.4219 34.0156 32.0156L34.8359 31.4297C35.0391 31.6641 35.2969 31.9219 35.6094 32.2031C35.9219 32.4688 36.2656 32.7188 36.6406 32.9531C37.0312 33.1875 37.4453 33.3828 37.8828 33.5391C38.3203 33.6797 38.7656 33.75 39.2188 33.75C40.3438 33.75 41.2656 33.4844 41.9844 32.9531C42.7031 32.4062 43.0625 31.6016 43.0625 30.5391C43.0625 29.9453 42.8672 29.3359 42.4766 28.7109C42.0859 28.0703 41.5938 27.4141 41 26.7422C40.4062 26.0703 39.7656 25.375 39.0781 24.6562C38.3906 23.9375 37.75 23.1953 37.1562 22.4297C36.5625 21.6641 36.0703 20.875 35.6797 20.0625C35.2891 19.25 35.0938 18.4062 35.0938 17.5312C35.0938 16.5469 35.2891 15.6875 35.6797 14.9531C36.0859 14.2188 36.6172 13.6094 37.2734 13.125C37.9453 12.6406 38.7031 12.2812 39.5469 12.0469C40.4062 11.7969 41.2891 11.6719 42.1953 11.6719C43.2422 11.6719 44.1953 11.7656 45.0547 11.9531C45.9141 12.1406 46.6484 12.4297 47.2578 12.8203C47.8828 13.1953 48.3594 13.6719 48.6875 14.25C49.0312 14.8281 49.2031 15.5 49.2031 16.2656C49.2031 16.8594 49.0078 17.375 48.6172 17.8125C48.2266 18.25 47.6797 18.4688 46.9766 18.4688C46.3047 18.4688 45.7891 18.3281 45.4297 18.0469C45.0859 17.75 44.9141 17.3516 44.9141 16.8516C44.9141 16.5234 44.9922 16.2656 45.1484 16.0781C45.3203 15.8906 45.5078 15.7422 45.7109 15.6328C45.9141 15.5078 46.0938 15.4062 46.25 15.3281C46.4219 15.2344 46.5078 15.1172 46.5078 14.9766C46.5078 14.5391 46.2734 14.1953 45.8047 13.9453C45.3359 13.6797 44.7344 13.5469 44 13.5469ZM61.7891 13.6875V31.0078C61.7891 31.8359 61.9453 32.4141 62.2578 32.7422C62.5703 33.0547 63 33.2109 63.5469 33.2109C63.9688 33.2109 64.3438 33.0938 64.6719 32.8594C65 32.625 65.2812 32.3594 65.5156 32.0625C65.7969 31.7344 66.0391 31.3516 66.2422 30.9141L66.9688 31.2422C66.7344 31.7422 66.4531 32.2891 66.125 32.8828C65.8125 33.4766 65.3906 34.0312 64.8594 34.5469C64.3281 35.0469 63.6562 35.4688 62.8438 35.8125C62.0469 36.1562 61.0391 36.3281 59.8203 36.3281C59.1328 36.3281 58.4688 36.2266 57.8281 36.0234C57.2031 35.8203 56.6406 35.5 56.1406 35.0625C55.6562 34.625 55.2656 34.0781 54.9688 33.4219C54.6719 32.7656 54.5234 31.9766 54.5234 31.0547V13.6875H51.8984V12C52.3359 12 52.9453 11.8906 53.7266 11.6719C54.5078 11.4375 55.3047 11.0547 56.1172 10.5234C56.9453 9.99219 57.7109 9.28125 58.4141 8.39062C59.1172 7.5 59.6172 6.39844 59.9141 5.08594H61.7891V12H65.6094C66.8594 12 67.4844 11.7891 67.4844 11.3672C67.4844 11.2109 67.4062 11.1094 67.25 11.0625C67.0938 11 66.9141 10.9297 66.7109 10.8516C66.5234 10.7578 66.3516 10.6328 66.1953 10.4766C66.0391 10.3203 65.9609 10.0625 65.9609 9.70312C65.9609 9.26562 66.0938 8.92188 66.3594 8.67188C66.6406 8.42188 67 8.29688 67.4375 8.29688C67.7188 8.29688 67.9609 8.35938 68.1641 8.48438C68.3828 8.59375 68.5625 8.75 68.7031 8.95312C68.8438 9.14062 68.9453 9.35938 69.0078 9.60938C69.0859 9.85938 69.125 10.1094 69.125 10.3594C69.125 11.375 68.8281 12.1875 68.2344 12.7969C67.6562 13.3906 66.7188 13.6875 65.4219 13.6875H61.7891ZM77.8438 16.6172C78.4375 15.7109 79.0703 14.8906 79.7422 14.1562C80.0234 13.8438 80.3281 13.5391 80.6562 13.2422C80.9844 12.9453 81.3203 12.6797 81.6641 12.4453C82.0234 12.2109 82.3906 12.0234 82.7656 11.8828C83.1406 11.7422 83.5156 11.6719 83.8906 11.6719C84.6875 11.6719 85.3125 11.9141 85.7656 12.3984C86.2188 12.8672 86.4453 13.5312 86.4453 14.3906C86.4453 14.9219 86.3984 15.4375 86.3047 15.9375C86.2266 16.4219 86.0625 17.0156 85.8125 17.7188H85.1562C85.0625 17.2344 84.8438 16.8359 84.5 16.5234C84.1562 16.1953 83.6562 16.0312 83 16.0312C82.5156 16.0312 82.0391 16.125 81.5703 16.3125C81.1016 16.4844 80.6406 16.7031 80.1875 16.9688C79.75 17.2344 79.3281 17.5234 78.9219 17.8359C78.5312 18.1484 78.1719 18.4453 77.8438 18.7266V33.9375C77.8438 34.1406 77.8125 34.3828 77.75 34.6641C77.6875 34.9453 77.5312 35.2109 77.2812 35.4609C77.0469 35.7109 76.6875 35.9219 76.2031 36.0938C75.7344 36.2812 75.0859 36.375 74.2578 36.375C73.4297 36.375 72.7734 36.2734 72.2891 36.0703C71.8203 35.8828 71.4609 35.6562 71.2109 35.3906C70.9609 35.125 70.8047 34.8516 70.7422 34.5703C70.6797 34.2891 70.6484 34.0625 70.6484 33.8906V15.7969C70.6484 15.3438 70.5391 14.9531 70.3203 14.625C70.1172 14.2812 69.7656 14.1094 69.2656 14.1094C69 14.1094 68.7734 14.1562 68.5859 14.25C68.3984 14.3438 68.1953 14.4766 67.9766 14.6484L67.4844 14.0625C67.8438 13.7656 68.2422 13.4766 68.6797 13.1953C69.1328 12.8984 69.6172 12.6406 70.1328 12.4219C70.6484 12.2031 71.2031 12.0234 71.7969 11.8828C72.3906 11.7422 73.0156 11.6719 73.6719 11.6719C74.3438 11.6719 74.9141 11.7656 75.3828 11.9531C75.8672 12.125 76.2578 12.3594 76.5547 12.6562C76.8672 12.9375 77.1094 13.2578 77.2812 13.6172C77.4531 13.9766 77.5781 14.3438 77.6562 14.7188C77.75 15.0781 77.8047 15.4297 77.8203 15.7734C77.8359 16.1016 77.8438 16.3828 77.8438 16.6172ZM87.4766 24C87.4766 21.9531 87.7734 20.1641 88.3672 18.6328C88.9609 17.0859 89.75 15.7969 90.7344 14.7656C91.7344 13.7344 92.8906 12.9609 94.2031 12.4453C95.5156 11.9297 96.8906 11.6719 98.3281 11.6719C99.7656 11.6719 101.141 11.9141 102.453 12.3984C103.766 12.8672 104.914 13.5938 105.898 14.5781C106.898 15.5625 107.695 16.8125 108.289 18.3281C108.883 19.8281 109.18 21.6094 109.18 23.6719C109.18 25.7188 108.883 27.5312 108.289 29.1094C107.695 30.6875 106.898 32.0156 105.898 33.0938C104.914 34.1719 103.766 34.9922 102.453 35.5547C101.141 36.1016 99.7656 36.375 98.3281 36.375C96.8906 36.375 95.5156 36.1172 94.2031 35.6016C92.8906 35.0703 91.7344 34.2891 90.7344 33.2578C89.75 32.2266 88.9609 30.9375 88.3672 29.3906C87.7734 27.8438 87.4766 26.0469 87.4766 24ZM101.891 23.7656C101.891 22.5156 101.844 21.3125 101.75 20.1562C101.672 18.9844 101.508 17.9453 101.258 17.0391C101.008 16.1328 100.648 15.4141 100.18 14.8828C99.7109 14.3359 99.0938 14.0625 98.3281 14.0625C97.5625 14.0625 96.9453 14.3516 96.4766 14.9297C96.0078 15.4922 95.6484 16.2422 95.3984 17.1797C95.1484 18.1016 94.9844 19.1562 94.9062 20.3438C94.8281 21.5312 94.7891 22.75 94.7891 24C94.7891 25.25 94.8281 26.4766 94.9062 27.6797C94.9844 28.8672 95.1484 29.9297 95.3984 30.8672C95.6484 31.8047 96.0078 32.5625 96.4766 33.1406C96.9453 33.7031 97.5625 33.9844 98.3281 33.9844C99.0938 33.9844 99.7109 33.6875 100.18 33.0938C100.648 32.5 101.008 31.7188 101.258 30.75C101.508 29.7812 101.672 28.6875 101.75 27.4688C101.844 26.25 101.891 25.0156 101.891 23.7656Z" fill="#228D73"/>
</svg>
