<svg width="289" height="95" viewBox="0 0 289 95" fill="none" xmlns="http://www.w3.org/2000/svg">
<path d="M35.3125 20.375C35.3125 21.8333 35.5417 23.0417 36 24C36.4583 24.9167 37.0208 25.7083 37.6875 26.375C38.3958 27 39.1458 27.5208 39.9375 27.9375C40.7292 28.3542 41.4583 28.7917 42.125 29.25C42.8333 29.7083 43.4167 30.2292 43.875 30.8125C44.3333 31.3958 44.5625 32.1458 44.5625 33.0625C44.5625 34.6042 44.0208 35.7917 42.9375 36.625C41.8542 37.4167 40.6042 37.8125 39.1875 37.8125C37.8542 37.8125 36.6042 37.3958 35.4375 36.5625C34.3125 35.7292 33.3125 34.6042 32.4375 33.1875C31.6042 31.7292 30.9375 30.0417 30.4375 28.125C29.9375 26.1667 29.6875 24.1042 29.6875 21.9375C29.6875 19.2708 30.1042 16.7292 30.9375 14.3125C31.7708 11.8542 33 9.70833 34.625 7.875C36.25 6 38.25 4.52083 40.625 3.4375C43.0417 2.35417 45.7917 1.8125 48.875 1.8125C50.9583 1.8125 53.2292 2.16667 55.6875 2.875C58.1458 3.54167 60.5833 4.625 63 6.125C65.4583 7.625 67.8125 9.5625 70.0625 11.9375C72.3542 14.3125 74.375 17.2083 76.125 20.625C77.9167 24.0417 79.3333 28 80.375 32.5C81.4167 37 81.9375 42.1042 81.9375 47.8125C81.9375 55.1875 80.8333 61.7917 78.625 67.625C76.4583 73.4583 73.5 78.4167 69.75 82.5C66.0417 86.5417 61.7292 89.6458 56.8125 91.8125C51.8958 93.9375 46.6875 95 41.1875 95C35.7292 95 30.5208 94.0625 25.5625 92.1875C20.6042 90.3125 16.2292 87.4583 12.4375 83.625C8.6875 79.75 5.6875 74.8542 3.4375 68.9375C1.22917 62.9792 0.125 55.9375 0.125 47.8125C0.125 41.5208 0.958333 35.7917 2.625 30.625C4.33333 25.4583 6.60417 20.875 9.4375 16.875C12.3125 12.875 15.6458 9.52083 19.4375 6.8125C23.2292 4.0625 27.25 1.97917 31.5 0.5625L33.625 3.25C32.4167 4.45833 31.2917 5.70833 30.25 7C29.2083 8.29167 28.25 9.77083 27.375 11.4375C26.5 13.0625 25.7083 14.9583 25 17.125C24.3333 19.25 23.7708 21.7708 23.3125 24.6875C22.8542 27.5625 22.5 30.8958 22.25 34.6875C22 38.4792 21.875 42.8542 21.875 47.8125C21.875 54.2292 22.2083 59.7083 22.875 64.25C23.5833 68.7917 24.4792 72.6042 25.5625 75.6875C26.6875 78.7292 27.9375 81.1667 29.3125 83C30.7292 84.7917 32.1458 86.1458 33.5625 87.0625C34.9792 87.9792 36.3542 88.5833 37.6875 88.875C39.0208 89.125 40.1875 89.25 41.1875 89.25C42.1875 89.25 43.3333 89.125 44.625 88.875C45.9583 88.5833 47.3125 87.9792 48.6875 87.0625C50.1042 86.1458 51.5 84.7917 52.875 83C54.25 81.1667 55.4583 78.7292 56.5 75.6875C57.5833 72.6042 58.4583 68.7917 59.125 64.25C59.7917 59.7083 60.125 54.2292 60.125 47.8125C60.125 42.1875 59.875 37.2917 59.375 33.125C58.875 28.9583 58.2083 25.3958 57.375 22.4375C56.5833 19.4792 55.6458 17.0625 54.5625 15.1875C53.5208 13.2708 52.4167 11.7708 51.25 10.6875C50.125 9.5625 48.9792 8.79167 47.8125 8.375C46.6875 7.95833 45.6458 7.75 44.6875 7.75C43.1875 7.75 41.8542 8.10417 40.6875 8.8125C39.5208 9.52083 38.5417 10.4792 37.75 11.6875C36.9583 12.8542 36.3542 14.2083 35.9375 15.75C35.5208 17.25 35.3125 18.7917 35.3125 20.375ZM115 34.125C114.042 34.125 113.125 34.25 112.25 34.5C111.417 34.75 110.667 35.1667 110 35.75C109.333 36.2917 108.812 37 108.438 37.875C108.062 38.7083 107.875 39.7083 107.875 40.875C107.875 42.5 108.458 44.125 109.625 45.75C110.833 47.3333 112.312 49 114.062 50.75C115.854 52.4583 117.771 54.25 119.812 56.125C121.896 57.9583 123.812 59.9167 125.562 62C127.354 64.0417 128.833 66.2292 130 68.5625C131.208 70.8958 131.812 73.3958 131.812 76.0625C131.812 79.0625 131.292 81.7292 130.25 84.0625C129.25 86.3958 127.792 88.375 125.875 90C124 91.625 121.708 92.875 119 93.75C116.333 94.5833 113.354 95 110.062 95C107.188 95 104.583 94.6042 102.25 93.8125C99.9167 92.9792 97.8333 91.9792 96 90.8125C94.2083 89.6042 92.6667 88.3333 91.375 87C90.0833 85.6667 89.0833 84.4583 88.375 83.375L90.5625 81.8125C91.1042 82.4375 91.7917 83.125 92.625 83.875C93.4583 84.5833 94.375 85.25 95.375 85.875C96.4167 86.5 97.5208 87.0208 98.6875 87.4375C99.8542 87.8125 101.042 88 102.25 88C105.25 88 107.708 87.2917 109.625 85.875C111.542 84.4167 112.5 82.2708 112.5 79.4375C112.5 77.8542 111.979 76.2292 110.938 74.5625C109.896 72.8542 108.583 71.1042 107 69.3125C105.417 67.5208 103.708 65.6667 101.875 63.75C100.042 61.8333 98.3333 59.8542 96.75 57.8125C95.1667 55.7708 93.8542 53.6667 92.8125 51.5C91.7708 49.3333 91.25 47.0833 91.25 44.75C91.25 42.125 91.7708 39.8333 92.8125 37.875C93.8958 35.9167 95.3125 34.2917 97.0625 33C98.8542 31.7083 100.875 30.75 103.125 30.125C105.417 29.4583 107.771 29.125 110.188 29.125C112.979 29.125 115.521 29.375 117.812 29.875C120.104 30.375 122.062 31.1458 123.688 32.1875C125.354 33.1875 126.625 34.4583 127.5 36C128.417 37.5417 128.875 39.3333 128.875 41.375C128.875 42.9583 128.354 44.3333 127.312 45.5C126.271 46.6667 124.812 47.25 122.938 47.25C121.146 47.25 119.771 46.875 118.812 46.125C117.896 45.3333 117.438 44.2708 117.438 42.9375C117.438 42.0625 117.646 41.375 118.062 40.875C118.521 40.375 119.021 39.9792 119.562 39.6875C120.104 39.3542 120.583 39.0833 121 38.875C121.458 38.625 121.688 38.3125 121.688 37.9375C121.688 36.7708 121.062 35.8542 119.812 35.1875C118.562 34.4792 116.958 34.125 115 34.125ZM162.438 34.5V80.6875C162.438 82.8958 162.854 84.4375 163.688 85.3125C164.521 86.1458 165.667 86.5625 167.125 86.5625C168.25 86.5625 169.25 86.25 170.125 85.625C171 85 171.75 84.2917 172.375 83.5C173.125 82.625 173.771 81.6042 174.312 80.4375L176.25 81.3125C175.625 82.6458 174.875 84.1042 174 85.6875C173.167 87.2708 172.042 88.75 170.625 90.125C169.208 91.4583 167.417 92.5833 165.25 93.5C163.125 94.4167 160.438 94.875 157.188 94.875C155.354 94.875 153.583 94.6042 151.875 94.0625C150.208 93.5208 148.708 92.6667 147.375 91.5C146.083 90.3333 145.042 88.875 144.25 87.125C143.458 85.375 143.062 83.2708 143.062 80.8125V34.5H136.062V30C137.229 30 138.854 29.7083 140.938 29.125C143.021 28.5 145.146 27.4792 147.312 26.0625C149.521 24.6458 151.562 22.75 153.438 20.375C155.312 18 156.646 15.0625 157.438 11.5625H162.438V30H172.625C175.958 30 177.625 29.4375 177.625 28.3125C177.625 27.8958 177.417 27.625 177 27.5C176.583 27.3333 176.104 27.1458 175.562 26.9375C175.062 26.6875 174.604 26.3542 174.188 25.9375C173.771 25.5208 173.562 24.8333 173.562 23.875C173.562 22.7083 173.917 21.7917 174.625 21.125C175.375 20.4583 176.333 20.125 177.5 20.125C178.25 20.125 178.896 20.2917 179.438 20.625C180.021 20.9167 180.5 21.3333 180.875 21.875C181.25 22.375 181.521 22.9583 181.688 23.625C181.896 24.2917 182 24.9583 182 25.625C182 28.3333 181.208 30.5 179.625 32.125C178.083 33.7083 175.583 34.5 172.125 34.5H162.438ZM205.25 42.3125C206.833 39.8958 208.521 37.7083 210.312 35.75C211.062 34.9167 211.875 34.1042 212.75 33.3125C213.625 32.5208 214.521 31.8125 215.438 31.1875C216.396 30.5625 217.375 30.0625 218.375 29.6875C219.375 29.3125 220.375 29.125 221.375 29.125C223.5 29.125 225.167 29.7708 226.375 31.0625C227.583 32.3125 228.188 34.0833 228.188 36.375C228.188 37.7917 228.062 39.1667 227.812 40.5C227.604 41.7917 227.167 43.375 226.5 45.25H224.75C224.5 43.9583 223.917 42.8958 223 42.0625C222.083 41.1875 220.75 40.75 219 40.75C217.708 40.75 216.438 41 215.188 41.5C213.938 41.9583 212.708 42.5417 211.5 43.25C210.333 43.9583 209.208 44.7292 208.125 45.5625C207.083 46.3958 206.125 47.1875 205.25 47.9375V88.5C205.25 89.0417 205.167 89.6875 205 90.4375C204.833 91.1875 204.417 91.8958 203.75 92.5625C203.125 93.2292 202.167 93.7917 200.875 94.25C199.625 94.75 197.896 95 195.688 95C193.479 95 191.729 94.7292 190.438 94.1875C189.188 93.6875 188.229 93.0833 187.562 92.375C186.896 91.6667 186.479 90.9375 186.312 90.1875C186.146 89.4375 186.062 88.8333 186.062 88.375V40.125C186.062 38.9167 185.771 37.875 185.188 37C184.646 36.0833 183.708 35.625 182.375 35.625C181.667 35.625 181.062 35.75 180.562 36C180.062 36.25 179.521 36.6042 178.938 37.0625L177.625 35.5C178.583 34.7083 179.646 33.9375 180.812 33.1875C182.021 32.3958 183.312 31.7083 184.688 31.125C186.062 30.5417 187.542 30.0625 189.125 29.6875C190.708 29.3125 192.375 29.125 194.125 29.125C195.917 29.125 197.438 29.375 198.688 29.875C199.979 30.3333 201.021 30.9583 201.812 31.75C202.646 32.5 203.292 33.3542 203.75 34.3125C204.208 35.2708 204.542 36.25 204.75 37.25C205 38.2083 205.146 39.1458 205.188 40.0625C205.229 40.9375 205.25 41.6875 205.25 42.3125ZM230.938 62C230.938 56.5417 231.729 51.7708 233.312 47.6875C234.896 43.5625 237 40.125 239.625 37.375C242.292 34.625 245.375 32.5625 248.875 31.1875C252.375 29.8125 256.042 29.125 259.875 29.125C263.708 29.125 267.375 29.7708 270.875 31.0625C274.375 32.3125 277.438 34.25 280.062 36.875C282.729 39.5 284.854 42.8333 286.438 46.875C288.021 50.875 288.812 55.625 288.812 61.125C288.812 66.5833 288.021 71.4167 286.438 75.625C284.854 79.8333 282.729 83.375 280.062 86.25C277.438 89.125 274.375 91.3125 270.875 92.8125C267.375 94.2708 263.708 95 259.875 95C256.042 95 252.375 94.3125 248.875 92.9375C245.375 91.5208 242.292 89.4375 239.625 86.6875C237 83.9375 234.896 80.5 233.312 76.375C231.729 72.25 230.938 67.4583 230.938 62ZM269.375 61.375C269.375 58.0417 269.25 54.8333 269 51.75C268.792 48.625 268.354 45.8542 267.688 43.4375C267.021 41.0208 266.062 39.1042 264.812 37.6875C263.562 36.2292 261.917 35.5 259.875 35.5C257.833 35.5 256.188 36.2708 254.938 37.8125C253.688 39.3125 252.729 41.3125 252.062 43.8125C251.396 46.2708 250.958 49.0833 250.75 52.25C250.542 55.4167 250.438 58.6667 250.438 62C250.438 65.3333 250.542 68.6042 250.75 71.8125C250.958 74.9792 251.396 77.8125 252.062 80.3125C252.729 82.8125 253.688 84.8333 254.938 86.375C256.188 87.875 257.833 88.625 259.875 88.625C261.917 88.625 263.562 87.8333 264.812 86.25C266.062 84.6667 267.021 82.5833 267.688 80C268.354 77.4167 268.792 74.5 269 71.25C269.25 68 269.375 64.7083 269.375 61.375Z" fill="white"/>
</svg>
